<?xml version="1.0" standalone="no"?><!DOCTYPE svg PUBLIC "-//W3C//DTD SVG 1.1//EN" "http://www.w3.org/Graphics/SVG/1.1/DTD/svg11.dtd"><svg t="1571923784524" class="icon" viewBox="0 0 1024 1024" version="1.1" xmlns="http://www.w3.org/2000/svg" p-id="17750" xmlns:xlink="http://www.w3.org/1999/xlink" width="200" height="200"><defs><style type="text/css"></style></defs><path d="M255.9992 640.0012m-63.9998 0a63.9998 63.9998 0 1 0 127.9996 0 63.9998 63.9998 0 1 0-127.9996 0Z" fill="#EAAE5A" p-id="17751"></path><path d="M959.997 64.003a650.664633 650.664633 0 0 1 42.666533 213.332667c0 186.879416-37.546549 338.558942-84.05307 341.118934A115.455639 115.455639 0 0 0 853.330667 597.334667c-6.186647 0-12.159962-0.213333-18.133277-0.213333C880.850581 591.361352 917.330467 461.655091 917.330467 277.335667a509.502408 509.502408 0 0 0-42.666534-191.9994c-21.333267-42.666533 0-63.9998 21.333267-63.9998s42.666533 0 63.9998 42.666533z" fill="#EAAE5A" p-id="17752"></path><path d="M918.610463 618.454601a191.487402 191.487402 0 0 1 67.839788 94.293038 170.666133 170.666133 0 1 1-306.772375-149.759532 433.193313 433.193313 0 0 0 155.519514 34.133227c5.973315 0 11.946629 0.213333 18.133277 0.213333a115.455639 115.455639 0 0 1 65.279796 21.119934zM533.331667 149.336067v213.332666c-153.386187 0-277.332467-76.373095-277.332467-170.666133h108.586327a43.029199 43.029199 0 0 0 32.213233-14.506621L533.331667 21.336467zM21.333267 149.336067V21.336467l136.532906 156.159512A43.029199 43.029199 0 0 0 190.079406 192.0026H255.9992c0 94.293039-104.959672 170.666133-234.665933 170.666133V149.336067z" fill="#F6CD85" p-id="17753"></path><path d="M21.333267 362.668733c129.706261 0 234.665933-76.373095 234.665933-170.666133 0 94.293039 123.946279 170.666133 277.332467 170.666133v170.666134a42.794533 42.794533 0 0 1-42.666534 42.666533H63.9998a42.794533 42.794533 0 0 1-42.666533-42.666533v-170.666134z" fill="#EFF1F4" p-id="17754"></path><path d="M191.9994 1002.666733H21.333267v-42.666533a42.794533 42.794533 0 0 1 42.666533-42.666533h21.333267V704.001c0-70.826445 28.586577-127.9996 63.9998-127.9996h106.666333a63.9998 63.9998 0 1 0 63.9998 63.9998 63.9998 63.9998 0 0 0-63.9998-63.9998h234.665933a42.794533 42.794533 0 0 0 42.666534-42.666533v-149.332867c0 75.306431 58.239818 141.226225 146.346209 178.986107a170.666133 170.666133 0 1 0 306.772375 149.759532 282.303118 282.303118 0 0 1 16.213282 95.9997c0 107.306331-47.786517 193.919394-106.666333 193.919394H191.9994z" fill="#EFF1F4" p-id="17755"></path><path d="M490.665133 597.334667H63.9998a63.9998 63.9998 0 0 1-63.9998-63.9998V21.336467A21.333267 21.333267 0 0 1 37.397216 7.299177l136.532907 156.159512A21.610599 21.610599 0 0 0 190.079406 170.669333h174.506121a21.717265 21.717265 0 0 0 16.234616-7.295977l136.532907-156.074179A21.333267 21.333267 0 0 1 554.664933 21.336467v511.9984a63.9998 63.9998 0 0 1-63.9998 63.9998zM42.666533 78.146956V533.334867a21.333267 21.333267 0 0 0 21.333267 21.333266h426.665333a21.333267 21.333267 0 0 0 21.333267-21.333266V78.146956l-99.13569 113.386312A64.362466 64.362466 0 0 1 364.585527 213.335867H190.079406a64.362466 64.362466 0 0 1-48.213183-21.717266z" fill="#2A3244" p-id="17756"></path><path d="M191.9994 1024H21.333267a21.333267 21.333267 0 0 1-21.333267-21.333267v-42.666533a63.9998 63.9998 0 0 1 63.9998-63.9998v-191.9994c0-85.141067 36.693219-149.332867 85.333067-149.332867v42.666534c-17.386612 0-42.666533 41.557203-42.666534 106.666333v213.332667a21.333267 21.333267 0 0 1-21.333266 21.333266H63.9998a21.333267 21.333267 0 0 0-21.333267 21.333267v21.333267h127.9996v-149.332867h42.666534v170.666133a21.333267 21.333267 0 0 1-21.333267 21.333267zM298.665733 1002.666733h-42.666533v-42.666533a63.9998 63.9998 0 0 1 63.9998-63.9998v-85.333067c0-85.141067 36.693219-149.332867 85.333067-149.332866v42.666533c-17.386612 0-42.666533 41.557203-42.666534 106.666333v106.666334a21.333267 21.333267 0 0 1-21.333266 21.333266h-21.333267a21.333267 21.333267 0 0 0-21.333267 21.333267zM341.332267 981.333467h106.666333v42.666533h-106.666333zM447.9986 832.0006h42.666533v170.666133h-42.666533zM895.9972 1024H554.664933a21.333267 21.333267 0 0 1-21.333266-21.333267v-42.666533a63.9998 63.9998 0 0 1 63.9998-63.9998h85.333066v42.666533h-85.333066a21.333267 21.333267 0 0 0-21.333267 21.333267v21.333267h319.999z" fill="#2A3244" p-id="17757"></path><path d="M447.9986 981.333467h106.666333v42.666533h-106.666333zM191.9994 981.333467h149.332867v42.666533H191.9994zM895.9972 1024v-42.666533c40.362541 0 85.333067-70.869112 85.333067-172.586128a262.975178 262.975178 0 0 0-14.933287-88.725056 170.794133 170.794133 0 0 0-59.861146-83.967737A94.015706 94.015706 0 0 0 853.330667 618.667933l-18.133277-0.213332a458.302568 458.302568 0 0 1-164.095487-35.925221C571.539547 539.862846 511.9984 465.623078 511.9984 384.002h42.666533c0 63.9998 49.877177 123.562281 133.41825 159.380835a414.590704 414.590704 0 0 0 147.988871 32.426566L853.330667 576.0014a135.935575 135.935575 0 0 1 77.247758 24.810589 213.524666 213.524666 0 0 1 75.94643 104.725006A301.71639 301.71639 0 0 1 1023.9968 808.747339C1023.9968 929.450962 967.762309 1024 895.9972 1024zM533.331667 384.002c-167.487477 0-298.665733-84.330403-298.665734-191.9994h42.666534c0 80.938414 117.332967 149.332867 255.9992 149.332867z" fill="#2A3244" p-id="17758"></path><path d="M21.333267 384.002v-42.666533c117.631632 0 213.332667-66.986457 213.332666-149.332867h42.666534c0 105.855669-114.836974 191.9994-255.9992 191.9994zM298.665733 533.334867c-35.882555 0-63.9998-37.48255-63.9998-85.333067h42.666534c0 26.047919 12.629294 42.666533 21.333266 42.666533a21.098601 21.098601 0 0 0 21.333267-21.333266h42.666533a63.9998 63.9998 0 0 1-63.9998 63.9998z" fill="#2A3244" p-id="17759"></path><path d="M213.332667 533.334867a63.9998 63.9998 0 0 1-63.9998-63.9998h42.666533a21.098601 21.098601 0 0 0 21.333267 21.333266c8.703973 0 21.333267-16.618615 21.333266-42.666533h42.666534c0 47.850517-28.117245 85.333067-63.9998 85.333067zM255.9992 725.334267a85.333067 85.333067 0 1 1 85.333067-85.333067 85.333067 85.333067 0 0 1-85.333067 85.333067z m0-127.9996a42.666533 42.666533 0 1 0 42.666533 42.666533 42.666533 42.666533 0 0 0-42.666533-42.666533z" fill="#2A3244" p-id="17760"></path><path d="M234.665933 576.0014h42.666534v63.9998h-42.666534zM319.999 362.668733h85.333067v42.666534h-85.333067zM447.9986 426.668533h85.333067v42.666534h-85.333067zM447.9986 490.668333h85.333067v42.666534h-85.333067zM21.333267 426.668533h85.333066v42.666534H21.333267zM21.333267 490.668333h85.333066v42.666534H21.333267zM127.9996 362.668733h85.333067v42.666534H127.9996zM490.665133 256.0024h-42.666533c0-71.765109 37.48255-127.9996 85.333067-127.9996v42.666533c-20.138604 0-42.666533 36.479886-42.666534 85.333067zM106.666333 256.0024H63.9998c0-48.853181-22.52793-85.333067-42.666533-85.333067V128.0028c47.850517 0 85.333067 56.234491 85.333066 127.9996zM917.330467 640.0012v-21.525266l-8.063975-19.19994a21.333267 21.333267 0 0 1 8.170641-2.133327C936.530407 596.097337 981.330267 486.017681 981.330267 277.335667a629.950031 629.950031 0 0 0-41.045205-205.183359C925.479775 42.669733 915.005141 42.669733 895.9972 42.669733a8.405307 8.405307 0 0 0-7.231977 3.583989c-2.623992 4.266653-2.687992 14.207956 4.991984 29.546574A535.827659 535.827659 0 0 1 938.663733 277.335667c0 151.466193-26.389251 331.561631-100.799685 340.948268A31.8719 31.8719 0 0 1 831.9974 618.667933v-42.666533c23.31726-2.922658 63.9998-105.173005 63.9998-298.665733a493.331792 493.331792 0 0 0-41.045205-183.850092 69.034451 69.034451 0 0 1-2.495992-69.674449A50.666508 50.666508 0 0 1 895.9972 0.0032c29.439908 0 57.941152 4.266653 83.19974 54.46383A673.363229 673.363229 0 0 1 1023.9968 277.335667c0 122.70895-21.546599 355.369556-102.890345 362.324201A22.143931 22.143931 0 0 1 917.330467 640.0012z m0-21.525266zM831.9974 832.0006a191.9994 191.9994 0 0 1-171.327465-278.676462c0.575998-1.386662 1.877327-3.797321 3.19999-6.186648l37.461217 20.43727c-0.853331 1.535995-1.578662 2.773325-2.133327 4.05332a149.332867 149.332867 0 1 0 267.988496 132.010254c1.087997-2.389326 2.303993-5.205317 3.519989-8.042641l39.210544 16.810614c-1.343996 3.157323-2.709325 6.27198-4.031987 9.215971A193.10873 193.10873 0 0 1 831.9974 832.0006z" fill="#2A3244" p-id="17761"></path></svg>