<?xml version="1.0" standalone="no"?><!DOCTYPE svg PUBLIC "-//W3C//DTD SVG 1.1//EN" "http://www.w3.org/Graphics/SVG/1.1/DTD/svg11.dtd"><svg t="1571923790268" class="icon" viewBox="0 0 1024 1024" version="1.1" xmlns="http://www.w3.org/2000/svg" p-id="17905" xmlns:xlink="http://www.w3.org/1999/xlink" width="200" height="200"><defs><style type="text/css"></style></defs><path d="M511.986347 384.017066c-131.004507 0-213.327645 38.164316-213.327645 85.331058v63.998293a42.665529 42.665529 0 0 0 42.665529 42.665529h341.324232a42.665529 42.665529 0 0 0 42.665529-42.665529v-63.998293c0-47.166742-82.323138-85.331058-213.327645-85.331058z" fill="#E9C2B9" p-id="17906"></path><path d="M682.648463 234.687715h-63.998294c-23.572705 0-63.998293 40.425589-63.998293 63.998293-63.998293 0-127.996587-21.332764-127.996587-63.998293h-85.331058a42.665529 42.665529 0 0 0-42.665529 42.665529v191.99488c0-47.166742 82.323138-85.331058 213.327645-85.331058s213.327645 38.164316 213.327645 85.331058v-191.99488a42.665529 42.665529 0 0 0-42.665529-42.665529z" fill="#CDABA5" p-id="17907"></path><path d="M554.651876 448.01536l-42.665529 42.665529-42.665529-42.665529h85.331058z" fill="#B0BAC6" p-id="17908"></path><path d="M958.907762 704.008533A49.38535 49.38535 0 0 1 917.308872 650.676622c0-29.439215 19.199488-74.664676 42.665529-74.664676s42.665529 45.225461 42.665529 74.664676a49.065358 49.065358 0 0 1-42.665529 53.331911z" fill="#EAAE5A" p-id="17909"></path><path d="M874.643343 960.001707v42.665529h-127.996587v-42.665529a42.793526 42.793526 0 0 0-42.665529-42.665529h-21.332764v-168.102184a372.534066 372.534066 0 0 0 70.398122-45.012133c66.558225 1.493294 100.263993 29.439215 100.263993 63.784965l-63.998293 149.329352h42.665529a42.793526 42.793526 0 0 1 42.665529 42.665529zM767.979521 277.353244a42.793526 42.793526 0 0 1 42.665528 42.665529 42.98552 42.98552 0 0 1-42.665528 42.665529h-42.665529v-85.331058z" fill="#CDABA5" p-id="17910"></path><path d="M753.046585 704.221861a372.534066 372.534066 0 0 1-70.398122 45.012133 383.157782 383.157782 0 0 1-341.324232 0 372.534066 372.534066 0 0 1-70.398122-45.012133 383.98976 383.98976 0 1 1 482.120476 0zM810.645049 320.018773a42.793526 42.793526 0 0 0-42.665528-42.665529h-42.665529a42.793526 42.793526 0 0 0-42.665529-42.665529h-63.998294c-23.679369 0-63.998293 40.318925-63.998293 63.998293-63.998293 0-127.996587-21.332764-127.996587-63.998293h-85.331058a42.793526 42.793526 0 0 0-42.665529 42.665529h-42.665528a42.793526 42.793526 0 0 0-42.665529 42.665529 42.98552 42.98552 0 0 0 42.665529 42.665529h42.665528v170.662115a42.793526 42.793526 0 0 0 42.665529 42.665529h341.324232a42.793526 42.793526 0 0 0 42.665529-42.665529v-170.662115h42.665529a42.98552 42.98552 0 0 0 42.665528-42.665529z" fill="#F6CD85" p-id="17911"></path><path d="M554.651876 1002.667236H277.325938v-42.665529a42.793526 42.793526 0 0 1 42.665529-42.665529h21.332764v-168.102184a383.157782 383.157782 0 0 0 341.324232 0V917.336178h21.332764a42.793526 42.793526 0 0 1 42.665529 42.665529v42.665529h-191.99488z" fill="#E9C2B9" p-id="17912"></path><path d="M341.324231 749.233994V917.336178h-21.332764a42.793526 42.793526 0 0 0-42.665529 42.665529v42.665529H149.329351v-42.665529a42.793526 42.793526 0 0 1 42.665529-42.665529h42.665529l-63.998293-149.329352c0-34.345751 33.705768-62.291672 100.263993-63.784965a372.534066 372.534066 0 0 0 70.398122 45.012133zM298.658702 277.353244v85.331058h-42.665528a42.98552 42.98552 0 0 1-42.665529-42.665529 42.793526 42.793526 0 0 1 42.665529-42.665529zM469.320818 832.00512h85.331058v170.662116h-85.331058z" fill="#CDABA5" p-id="17913"></path><path d="M511.986347 810.672355a400.757313 400.757313 0 0 1-180.155196-42.345537 393.717501 393.717501 0 0 1-74.302018-47.508067 405.322525 405.322525 0 1 1 508.914429 0 395.530786 395.530786 0 0 1-74.38735 47.572065A400.906642 400.906642 0 0 1 511.986347 810.672355z m0-767.97952a362.656996 362.656996 0 0 0-227.663262 644.910802 351.2653 351.2653 0 0 0 66.344897 42.452202 361.931682 361.931682 0 0 0 322.423402 0 351.521293 351.521293 0 0 0 66.430229-42.494867A362.656996 362.656996 0 0 0 511.986347 42.692835z" fill="#2A3244" p-id="17914"></path><path d="M767.979521 1002.667236h-42.665529v-42.665529a21.332764 21.332764 0 0 0-21.332765-21.332765h-21.332764a21.332764 21.332764 0 0 1-21.332765-21.332764v-170.662116h42.665529v149.329351a63.998293 63.998293 0 0 1 63.998294 63.998294z" fill="#2A3244" p-id="17915"></path><path d="M725.313992 1024h-170.662116a21.332764 21.332764 0 0 1-21.332765-21.332764v-170.662116h42.665529v149.329351h149.329352zM298.658702 1002.667236h-42.665528v-42.665529a63.998293 63.998293 0 0 1 63.998293-63.998294v-149.329351h42.665529v170.662116a21.332764 21.332764 0 0 1-21.332765 21.332764h-21.332764a21.332764 21.332764 0 0 0-21.332765 21.332765z" fill="#2A3244" p-id="17916"></path><path d="M469.320818 1024h-170.662116v-42.665529h149.329352v-149.329351h42.665529v170.662116a21.332764 21.332764 0 0 1-21.332765 21.332764zM874.643343 1024h-149.329351v-42.665529h127.996586v-21.332764a21.332764 21.332764 0 0 0-21.332764-21.332765h-42.665529a21.332764 21.332764 0 0 1-19.604811-29.737873l62.014347-144.721475c-3.029253-22.61273-33.428442-37.630997-79.165889-38.676302C749.548012 725.341298 748.033386 725.341298 746.646756 725.341298v-42.665529a80.061865 80.061865 0 0 1 8.533106 0.319991C842.921522 684.809045 874.643343 729.99184 874.643343 768.006826a21.098104 21.098104 0 0 1-1.727954 8.40511L821.674089 896.003413H831.977814a63.998293 63.998293 0 0 1 63.998293 63.998294v42.665529a21.332764 21.332764 0 0 1-21.332764 21.332764zM298.658702 1024H149.329351a21.332764 21.332764 0 0 1-21.332764-21.332764v-42.665529a63.998293 63.998293 0 0 1 63.998293-63.998294h10.303725l-51.198634-119.591477A21.098104 21.098104 0 0 1 149.329351 768.006826c0-38.014986 31.721821-83.197781 121.127437-85.11773A63.016986 63.016986 0 0 1 277.325938 682.675769v42.665529c-1.429295 0-2.922589 0-4.266553 0.106663-47.252073 1.130637-77.736594 16.148903-80.765846 38.761633l62.014346 144.721475A21.332764 21.332764 0 0 1 234.660409 938.668942H191.99488a21.332764 21.332764 0 0 0-21.332764 21.332765v21.332764h127.996586zM511.986347 512.013653a21.332764 21.332764 0 0 1-15.082264-6.2505l-42.665529-42.665529A21.332764 21.332764 0 0 1 469.320818 426.682595h85.331058a21.332764 21.332764 0 0 1 15.082264 36.415029l-42.665528 42.665529A21.332764 21.332764 0 0 1 511.986347 512.013653z" fill="#2A3244" p-id="17917"></path><path d="M490.653583 490.680889h42.665528v85.331057h-42.665528zM746.646756 469.348124h-42.665529a20.074131 20.074131 0 0 0-2.986587-10.410389C686.275033 432.911762 620.996773 405.349831 511.986347 405.349831s-174.288686 27.561932-188.794965 53.182581A20.820778 20.820778 0 0 0 319.991467 469.348124h-42.665529a63.272979 63.272979 0 0 1 8.981094-32.25514C312.588998 390.651556 397.045412 362.684302 511.986347 362.684302s199.397349 27.967254 225.913976 74.814005A62.803659 62.803659 0 0 1 746.646756 469.348124z" fill="#2A3244" p-id="17918"></path><path d="M639.982934 426.682595h85.331058v42.665529h-85.331058zM639.982934 490.680889h85.331058v42.665528h-85.331058zM298.658702 426.682595h85.331058v42.665529h-85.331058zM298.658702 490.680889h85.331058v42.665528h-85.331058zM767.979521 384.017066h-42.665529v-42.665529h42.665529a20.415456 20.415456 0 0 0 14.804938-6.143836A20.863444 20.863444 0 0 0 789.312285 320.018773a21.332764 21.332764 0 0 0-21.332764-21.332765h-42.665529v-42.665529h42.665529a63.998293 63.998293 0 0 1 63.998293 63.998294 64.36095 64.36095 0 0 1-63.998293 63.998293zM298.658702 384.017066h-42.665528a64.318285 64.318285 0 0 1-63.998294-63.998293 63.998293 63.998293 0 0 1 63.998294-63.998294h42.665528v42.665529h-42.665528a21.332764 21.332764 0 0 0-21.332765 21.332765 20.586118 20.586118 0 0 0 6.122503 14.804938A20.863444 20.863444 0 0 0 255.993174 341.351537h42.665528zM570.800779 320.658756l85.331057-21.332765 10.325058 41.406896-85.331057 21.311432zM357.473134 340.711554l10.346391-41.385563 85.331058 21.332765-10.346391 41.385563zM810.645049 896.003413v-42.665529c65.150263 0 119.740807-64.958268 127.01528-151.121303A159.355751 159.355751 0 0 0 938.641636 682.675769h42.665529a202.10661 202.10661 0 0 1-1.215967 23.914029C971.024773 814.234927 898.109384 896.003413 810.645049 896.003413z" fill="#2A3244" p-id="17919"></path><path d="M959.974401 725.341298a70.248793 70.248793 0 0 1-63.998294-74.664676c0-33.49244 21.972747-95.99744 63.998294-95.99744s63.998293 62.505 63.998293 95.99744a70.035466 70.035466 0 0 1-63.998293 74.664676z m-0.61865-127.996587A81.597824 81.597824 0 0 0 938.641636 650.676622c0 18.687502 10.901043 31.63649 21.055439 31.999147 10.367724 0 21.61009-13.140983 21.61009-31.999147a75.283326 75.283326 0 0 0-21.951414-53.331911zM682.648463 597.344711H341.324231a63.998293 63.998293 0 0 1-63.998293-63.998294V277.353244a63.998293 63.998293 0 0 1 63.998293-63.998293h85.331058a21.332764 21.332764 0 0 1 21.332765 21.332764c0 21.332764 39.380283 39.081624 90.60025 42.196208C552.390603 245.887416 590.426922 213.354951 618.650169 213.354951h63.998294a63.998293 63.998293 0 0 1 63.998293 63.998293v255.993173a63.998293 63.998293 0 0 1-63.998293 63.998294zM341.324231 256.020479a21.332764 21.332764 0 0 0-21.332764 21.332765v255.993173a21.332764 21.332764 0 0 0 21.332764 21.332765h341.324232a21.332764 21.332764 0 0 0 21.332764-21.332765V277.353244a21.332764 21.332764 0 0 0-21.332764-21.332765h-63.998294a74.515346 74.515346 0 0 0-42.665529 42.665529 21.588758 21.588758 0 0 1-21.332764 21.332765c-64.659609 0-129.852537-19.9888-145.702781-63.998294zM469.320818 981.334471h85.331058v42.665529h-85.331058z" fill="#2A3244" p-id="17920"></path></svg>