<?xml version="1.0" standalone="no"?><!DOCTYPE svg PUBLIC "-//W3C//DTD SVG 1.1//EN" "http://www.w3.org/Graphics/SVG/1.1/DTD/svg11.dtd"><svg t="1571923804610" class="icon" viewBox="0 0 1024 1024" version="1.1" xmlns="http://www.w3.org/2000/svg" p-id="18221" xmlns:xlink="http://www.w3.org/1999/xlink" width="200" height="200"><defs><style type="text/css"></style></defs><path d="M832.007893 192v42.666667a85.333333 85.333333 0 0 1-85.333333 85.333333h-64V106.666667h64a85.333333 85.333333 0 0 1 85.333333 85.333333z" fill="#E9C2B9" p-id="18222"></path><path d="M960.007893 320c23.466667 0 42.666667 61.866667 42.666667 85.333333a42.666667 42.666667 0 0 1-85.333333 0c0-23.466667 19.2-85.333333 42.666666-85.333333zM704.007893 64v42.666667h-85.333333V64a42.666667 42.666667 0 0 1 85.333333 0z" fill="#EAAE5A" p-id="18223"></path><path d="M746.67456 618.666667m-42.666667 0a42.666667 42.666667 0 1 0 85.333334 0 42.666667 42.666667 0 1 0-85.333334 0Z" fill="#CDABA5" p-id="18224"></path><path d="M403.847893 113.92A74.922667 74.922667 0 0 1 405.341227 128a64 64 0 0 1-123.52 23.466667 474.709333 474.709333 0 0 1 122.026666-37.546667zM453.127893 320l1.92 4.906667a80.768 80.768 0 0 0-52.266666 101.546666A64 64 0 1 1 453.127893 320zM192.007893 209.066667A128 128 0 0 1 128.007893 448a126.186667 126.186667 0 0 1-82.346666-30.293333 436.437333 436.437333 0 0 1 144.853333-210.346667z" fill="#CDABA5" p-id="18225"></path><path d="M192.007893 533.333333m-42.666666 0a42.666667 42.666667 0 1 0 85.333333 0 42.666667 42.666667 0 1 0-85.333333 0Z" fill="#CDABA5" p-id="18226"></path><path d="M362.67456 576m-64 0a64 64 0 1 0 128 0 64 64 0 1 0-128 0Z" fill="#CDABA5" p-id="18227"></path><path d="M682.67456 490.666667c7.253333 0 14.293333 0.426667 21.333333 1.066666A106.666667 106.666667 0 0 1 490.67456 490.666667z" fill="#CDABA5" p-id="18228"></path><path d="M896.007893 917.333333v42.666667a42.794667 42.794667 0 0 1-42.666666 42.666667h-42.666667a42.794667 42.794667 0 0 1-42.666667-42.666667v-42.666667zM362.67456 917.333333v42.666667a42.794667 42.794667 0 0 1-42.666667 42.666667h-42.666666a42.794667 42.794667 0 0 1-42.666667-42.666667v-42.666667zM149.341227 917.333333v42.666667a42.794667 42.794667 0 0 1-42.666667 42.666667H64.007893a42.794667 42.794667 0 0 1-42.666666-42.666667v-42.666667z" fill="#B0BAC6" p-id="18229"></path><path d="M234.67456 789.333333h128v128h-128z" fill="#EAAE5A" p-id="18230"></path><path d="M192.007893 490.666667a42.666667 42.666667 0 1 0 42.666667 42.666666 42.794667 42.794667 0 0 0-42.666667-42.666666z m554.666667 85.333333a42.666667 42.666667 0 1 0 42.666667 42.666667 42.794667 42.794667 0 0 0-42.666667-42.666667z m94.72-21.546667A180.885333 180.885333 0 0 1 896.007893 682.666667v234.666666h-128v-42.666666a85.333333 85.333333 0 0 0-85.333333-85.333334H234.67456a85.333333 85.333333 0 0 0-85.333333 85.333334v42.666666H21.341227V576a507.733333 507.733333 0 0 1 24.32-158.293333A126.186667 126.186667 0 0 0 128.007893 448 128 128 0 0 0 192.007893 209.066667l-1.493333-1.706667a438.336 438.336 0 0 1 91.306667-55.893333A64 64 0 0 0 405.341227 128a74.922667 74.922667 0 0 0-1.493334-14.08A505.6 505.6 0 0 1 490.67456 106.666667V64a42.666667 42.666667 0 0 1 49.92-42.026667A44.202667 44.202667 0 0 1 576.007893 66.346667V106.666667h106.666667v213.333333h-192a134.058667 134.058667 0 0 0-26.453333 2.56c-3.2 0.64-6.186667 1.493333-9.173334 2.346667l-1.92-4.906667a64 64 0 1 0-50.346666 106.453333A82.901333 82.901333 0 0 0 485.341227 490.666667H490.67456a106.666667 106.666667 0 0 0 213.333333 1.066666 219.541333 219.541333 0 0 1 137.386667 62.72zM426.67456 576a64 64 0 1 0-64 64 64 64 0 0 0 64-64z" fill="#F6CD85" p-id="18231"></path><path d="M320.007893 1024h-42.666666a64 64 0 0 1-64-64v-170.666667h42.666666v170.666667a21.333333 21.333333 0 0 0 21.333334 21.333333h42.666666a21.333333 21.333333 0 0 0 21.333334-21.333333v-170.666667h42.666666v170.666667a64 64 0 0 1-64 64z" fill="#2A3244" p-id="18232"></path><path d="M853.341227 1024h-42.666667a64 64 0 0 1-64-64v-85.333333a64 64 0 0 0-64-64H234.67456a64 64 0 0 0-64 64v85.333333a64 64 0 0 1-64 64H64.007893a64 64 0 0 1-64-64V576a529.642667 529.642667 0 0 1 25.365334-164.928A459.584 459.584 0 0 1 273.07456 132.032a496.64 496.64 0 0 1 127.317333-39.146667A515.669333 515.669333 0 0 1 469.341227 85.738667V64A64 64 0 0 1 544.007893 0.917333 65.749333 65.749333 0 0 1 597.341227 66.346667V85.333333h21.333333v42.666667h-42.666667a21.333333 21.333333 0 0 1-21.333333-21.333333V66.346667a23.104 23.104 0 0 0-17.514667-23.317334 21.013333 21.013333 0 0 0-17.578666 4.672A21.333333 21.333333 0 0 0 512.007893 64v42.666667a21.333333 21.333333 0 0 1-21.333333 21.333333 485.44 485.44 0 0 0-83.2 6.933333 454.4 454.4 0 0 0-116.672 35.861334A416.597333 416.597333 0 0 0 65.97056 424.256 486.954667 486.954667 0 0 0 42.67456 576v384a21.333333 21.333333 0 0 0 21.333333 21.333333h42.666667a21.333333 21.333333 0 0 0 21.333333-21.333333v-85.333333a106.794667 106.794667 0 0 1 106.666667-106.666667h448a106.794667 106.794667 0 0 1 106.666667 106.666667v85.333333a21.333333 21.333333 0 0 0 21.333333 21.333333h42.666667a21.333333 21.333333 0 0 0 21.333333-21.333333V682.666667a159.786667 159.786667 0 0 0-48.362667-113.066667 198.4 198.4 0 0 0-124.138666-56.554667c-6.4-0.576-12.8-0.981333-19.498667-0.981333h-197.333333a104.213333 104.213333 0 0 1-103.210667-80.192 101.546667 101.546667 0 0 1 66.56-127.274667c4.010667-1.152 7.573333-2.133333 11.349333-2.88A152.554667 152.554667 0 0 1 490.67456 298.666667h256a64 64 0 0 0 64-64V192a64 64 0 0 0-64-64h-42.666667V85.333333h42.666667a106.794667 106.794667 0 0 1 106.666667 106.666667v42.666667a106.794667 106.794667 0 0 1-106.666667 106.666666H490.67456a111.872 111.872 0 0 0-22.272 2.133334c-2.602667 0.512-5.034667 1.237333-7.488 1.92a59.264 59.264 0 0 0-37.504 75.562666A61.973333 61.973333 0 0 0 485.341227 469.333333H682.67456c7.893333 0 15.573333 0.448 23.253333 1.152a240.938667 240.938667 0 0 1 150.592 68.928A202.090667 202.090667 0 0 1 917.341227 682.666667v277.333333a64 64 0 0 1-64 64z" fill="#2A3244" p-id="18233"></path><path d="M704.007893 128h-85.333333a21.333333 21.333333 0 0 1-21.333333-21.333333V64a64 64 0 0 1 128 0v42.666667a21.333333 21.333333 0 0 1-21.333334 21.333333z m-64-42.666667h42.666667V64a21.333333 21.333333 0 0 0-42.666667 0z" fill="#2A3244" p-id="18234"></path><path d="M661.341227 106.666667h42.666666v213.333333h-42.666666zM618.67456 213.333333h-42.666667a21.333333 21.333333 0 0 0-42.666666 0h-42.666667a64 64 0 0 1 128 0zM832.007893 576v-42.666667c2.858667 0 5.290667 0 8.021334-0.170666C877.127893 531.477333 938.67456 518.208 938.67456 448h42.666667c0 76.053333-51.968 123.733333-138.986667 127.765333C839.111893 576 835.69856 576 832.007893 576z" fill="#2A3244" p-id="18235"></path><path d="M960.007893 469.333333a64 64 0 0 1-64-64c0-24.853333 19.968-106.666667 64-106.666666s64 81.813333 64 106.666666a64 64 0 0 1-64 64z m0-126.144A132.522667 132.522667 0 0 0 938.67456 405.333333a21.333333 21.333333 0 0 0 42.666667 0 132.522667 132.522667 0 0 0-21.333334-62.144zM746.67456 170.666667h42.666667v42.666666h-42.666667zM597.341227 618.666667a128.128 128.128 0 0 1-128-128h42.666666a85.333333 85.333333 0 0 0 170.666667 0.832L725.341227 490.666667v1.066666A128.554667 128.554667 0 0 1 597.341227 618.666667zM768.007893 896h128v42.666667h-128zM21.341227 896h128v42.666667H21.341227zM234.67456 896h128v42.666667h-128z" fill="#2A3244" p-id="18236"></path><path d="M746.67456 682.666667a64 64 0 1 1 64-64 64 64 0 0 1-64 64z m0-85.333334a21.333333 21.333333 0 1 0 21.333333 21.333334 21.333333 21.333333 0 0 0-21.333333-21.333334zM362.67456 661.333333a85.333333 85.333333 0 1 1 85.333333-85.333333 85.333333 85.333333 0 0 1-85.333333 85.333333z m0-128a42.666667 42.666667 0 1 0 42.666667 42.666667 42.666667 42.666667 0 0 0-42.666667-42.666667zM128.007893 469.333333a147.925333 147.925333 0 0 1-95.296-34.645333 39.552 39.552 0 0 1-2.901333-2.261333l26.133333-33.770667 1.92 1.6a106.666667 106.666667 0 1 0 123.434667-172.8l21.333333-36.906667A149.333333 149.333333 0 0 1 128.007893 469.333333zM405.341227 448a33.216 33.216 0 0 1-4.885334-0.298667A85.333333 85.333333 0 0 1 405.341227 277.333333a85.802667 85.802667 0 0 1 63.637333 28.394667L437.341227 334.272A42.666667 42.666667 0 0 0 362.67456 362.666667a42.346667 42.346667 0 0 0 40.896 42.474666 22.101333 22.101333 0 0 1 4.266667 0.597334l-2.730667 11.157333zM341.341227 213.333333a85.034667 85.034667 0 0 1-79.36-53.994666 37.973333 37.973333 0 0 1-1.28-3.349334l40.533333-13.312a14.336 14.336 0 0 1 0.896 2.24A42.197333 42.197333 0 0 0 341.341227 170.666667a42.666667 42.666667 0 0 0 42.666666-42.666667 51.456 51.456 0 0 0-1.130666-10.090667c-0.192-0.682667-0.618667-2.325333-1.194667-3.946666l40.085333-14.592a92.8 92.8 0 0 1 2.773334 9.429333 97.152 97.152 0 0 1 2.133333 19.2 85.333333 85.333333 0 0 1-85.333333 85.333333zM192.007893 597.333333a64 64 0 1 1 64-64 64 64 0 0 1-64 64z m0-85.333333a21.333333 21.333333 0 1 0 21.333334 21.333333 21.333333 21.333333 0 0 0-21.333334-21.333333z" fill="#2A3244" p-id="18237"></path></svg>